# xmcd
#
# Track frame offsets:
#	150
#	18777
#	28913
#	33863
#	42093
#	56396
#	68035
#	79823
#	94075
#	104865
#	121596
#	132834
#	142241
#	151936
#
# Disc length: 2148 seconds
#
# Revision: 1
# Processed by: cddbd v1.5.2PL0 Copyright (c) Steve Scherf et al.
# Submitted via: EasyCDDAExtractor 6.2.0.3
#
DISCID=b308620e
DTITLE=Various Artist - Super Fiesta Total Vol. 1
DYEAR=1900
DGENRE=Latin
TTITLE0=Alla En El Rancho Grande
TTITLE1=Mixed - Adelita
TTITLE2=La Raspa
TTITLE3=La Cucaracha
TTITLE4=Laberto Quintero
TTITLE5=Las Tres Tumbas
TTITLE6=El Sinaloense
TTITLE7=Jefe De Jefes
TTITLE8=Andan Diciendo
TTITLE9=Con La Tinta De Mi Sangre
TTITLE10=No Rompas Mi Corazon
TTITLE11=Arriba Y Abajo
TTITLE12=Viviendo De Noche
TTITLE13=Payaso De Rodeo
EXTD=
EXTT0=
EXTT1=
EXTT2=
EXTT3=
EXTT4=
EXTT5=
EXTT6=
EXTT7=
EXTT8=
EXTT9=
EXTT10=
EXTT11=
EXTT12=
EXTT13=
PLAYORDER=
